<mxfile host="app.diagrams.net" modified="2024-02-10T08:07:07.741Z" agent="Mozilla/5.0 (Windows NT 10.0; Win64; x64) AppleWebKit/537.36 (KHTML, like Gecko) Chrome/121.0.0.0 Safari/537.36" etag="KOM8u5Sfs6V7DNwaGOLM" version="23.1.2" type="device">
  <diagram id="vmVpZyVX-OpxnoMltSUL" name="Страница — 2">
    <mxGraphModel dx="2652" dy="1598" grid="0" gridSize="10" guides="1" tooltips="1" connect="1" arrows="1" fold="1" page="0" pageScale="1" pageWidth="827" pageHeight="1169" math="0" shadow="0">
      <root>
        <mxCell id="0" />
        <mxCell id="1" parent="0" />
        <mxCell id="tsIFHmdTFSINdlWLhxCd-56" value="" style="rounded=1;whiteSpace=wrap;html=1;fillColor=#f8cecc;opacity=40;strokeColor=#000000;strokeWidth=10;" parent="1" vertex="1">
          <mxGeometry x="-123" y="-383" width="1363" height="755" as="geometry" />
        </mxCell>
        <mxCell id="tsIFHmdTFSINdlWLhxCd-1" value="&lt;b&gt;USER&lt;/b&gt;" style="shape=umlActor;verticalLabelPosition=bottom;verticalAlign=top;html=1;outlineConnect=0;fontSize=20;" parent="1" vertex="1">
          <mxGeometry x="-320" y="-162.5" width="67" height="140" as="geometry" />
        </mxCell>
        <mxCell id="tsIFHmdTFSINdlWLhxCd-2" value="" style="ellipse;whiteSpace=wrap;html=1;" parent="1" vertex="1">
          <mxGeometry x="-94" y="-142" width="351" height="103" as="geometry" />
        </mxCell>
        <mxCell id="tsIFHmdTFSINdlWLhxCd-4" value="" style="endArrow=classic;html=1;rounded=0;" parent="1" source="tsIFHmdTFSINdlWLhxCd-1" target="tsIFHmdTFSINdlWLhxCd-2" edge="1">
          <mxGeometry width="50" height="50" relative="1" as="geometry">
            <mxPoint x="-372" y="-64" as="sourcePoint" />
            <mxPoint x="-322" y="-114" as="targetPoint" />
          </mxGeometry>
        </mxCell>
        <mxCell id="tsIFHmdTFSINdlWLhxCd-5" value="&lt;font style=&quot;font-size: 25px;&quot;&gt;Домашний интерфейс&lt;/font&gt;" style="text;html=1;strokeColor=none;fillColor=none;align=center;verticalAlign=middle;whiteSpace=wrap;rounded=0;" parent="1" vertex="1">
          <mxGeometry x="-8.5" y="-105.5" width="190" height="30" as="geometry" />
        </mxCell>
        <mxCell id="tsIFHmdTFSINdlWLhxCd-12" value="&lt;span style=&quot;font-size: 25px;&quot;&gt;Include&lt;/span&gt;" style="endArrow=open;endSize=12;dashed=1;html=1;rounded=0;exitX=0.5;exitY=1;exitDx=0;exitDy=0;" parent="1" source="tsIFHmdTFSINdlWLhxCd-2" target="tsIFHmdTFSINdlWLhxCd-14" edge="1">
          <mxGeometry width="160" relative="1" as="geometry">
            <mxPoint x="49" y="66" as="sourcePoint" />
            <mxPoint x="82" y="233" as="targetPoint" />
          </mxGeometry>
        </mxCell>
        <mxCell id="tsIFHmdTFSINdlWLhxCd-14" value="" style="ellipse;whiteSpace=wrap;html=1;" parent="1" vertex="1">
          <mxGeometry x="-77.75" y="81" width="324" height="107" as="geometry" />
        </mxCell>
        <mxCell id="tsIFHmdTFSINdlWLhxCd-15" value="&lt;span style=&quot;font-size: 25px;&quot;&gt;Добавление нового будильника&lt;/span&gt;" style="text;html=1;strokeColor=none;fillColor=none;align=center;verticalAlign=middle;whiteSpace=wrap;rounded=0;" parent="1" vertex="1">
          <mxGeometry x="20.75" y="119.5" width="137" height="30" as="geometry" />
        </mxCell>
        <mxCell id="tsIFHmdTFSINdlWLhxCd-16" value="&lt;span style=&quot;font-size: 25px;&quot;&gt;Include&lt;/span&gt;" style="endArrow=open;endSize=12;dashed=1;html=1;rounded=0;exitX=1;exitY=0.5;exitDx=0;exitDy=0;entryX=0;entryY=0.5;entryDx=0;entryDy=0;" parent="1" source="tsIFHmdTFSINdlWLhxCd-2" target="tsIFHmdTFSINdlWLhxCd-17" edge="1">
          <mxGeometry width="160" relative="1" as="geometry">
            <mxPoint x="375" y="-171" as="sourcePoint" />
            <mxPoint x="375" y="101" as="targetPoint" />
          </mxGeometry>
        </mxCell>
        <mxCell id="tsIFHmdTFSINdlWLhxCd-17" value="" style="ellipse;whiteSpace=wrap;html=1;" parent="1" vertex="1">
          <mxGeometry x="416" y="-348" width="324" height="107" as="geometry" />
        </mxCell>
        <mxCell id="tsIFHmdTFSINdlWLhxCd-18" value="&lt;span style=&quot;font-size: 25px;&quot;&gt;Добавление нового таймера&lt;/span&gt;" style="text;html=1;strokeColor=none;fillColor=none;align=center;verticalAlign=middle;whiteSpace=wrap;rounded=0;" parent="1" vertex="1">
          <mxGeometry x="510" y="-309.5" width="137" height="30" as="geometry" />
        </mxCell>
        <mxCell id="tsIFHmdTFSINdlWLhxCd-25" value="&lt;span style=&quot;font-size: 25px;&quot;&gt;Include&lt;/span&gt;" style="endArrow=open;endSize=12;dashed=1;html=1;rounded=0;exitX=1;exitY=0.5;exitDx=0;exitDy=0;entryX=0;entryY=0.5;entryDx=0;entryDy=0;" parent="1" source="tsIFHmdTFSINdlWLhxCd-2" target="tsIFHmdTFSINdlWLhxCd-26" edge="1">
          <mxGeometry width="160" relative="1" as="geometry">
            <mxPoint x="257" y="-92.5" as="sourcePoint" />
            <mxPoint x="417.61785820574096" y="-97.99985119624762" as="targetPoint" />
          </mxGeometry>
        </mxCell>
        <mxCell id="tsIFHmdTFSINdlWLhxCd-26" value="" style="ellipse;whiteSpace=wrap;html=1;" parent="1" vertex="1">
          <mxGeometry x="423" y="-146" width="324" height="107" as="geometry" />
        </mxCell>
        <mxCell id="tsIFHmdTFSINdlWLhxCd-27" value="&lt;span style=&quot;font-size: 25px;&quot;&gt;Список созданных будильников&lt;/span&gt;" style="text;html=1;strokeColor=none;fillColor=none;align=center;verticalAlign=middle;whiteSpace=wrap;rounded=0;" parent="1" vertex="1">
          <mxGeometry x="517" y="-107.5" width="137" height="30" as="geometry" />
        </mxCell>
        <mxCell id="tsIFHmdTFSINdlWLhxCd-34" value="&lt;span style=&quot;font-size: 25px;&quot;&gt;Include&lt;br&gt;&lt;/span&gt;" style="endArrow=open;endSize=12;dashed=1;html=1;rounded=0;exitX=1;exitY=0.5;exitDx=0;exitDy=0;entryX=0;entryY=0.5;entryDx=0;entryDy=0;" parent="1" source="tsIFHmdTFSINdlWLhxCd-26" target="tsIFHmdTFSINdlWLhxCd-35" edge="1">
          <mxGeometry width="160" relative="1" as="geometry">
            <mxPoint x="908" y="-258.5" as="sourcePoint" />
            <mxPoint x="756" y="-258.5" as="targetPoint" />
          </mxGeometry>
        </mxCell>
        <mxCell id="tsIFHmdTFSINdlWLhxCd-35" value="" style="ellipse;whiteSpace=wrap;html=1;" parent="1" vertex="1">
          <mxGeometry x="909.75" y="81" width="324" height="107" as="geometry" />
        </mxCell>
        <mxCell id="tsIFHmdTFSINdlWLhxCd-36" value="&lt;font style=&quot;font-size: 25px;&quot;&gt;Переключатель будильника (вкл\выкл)&lt;/font&gt;" style="text;html=1;strokeColor=none;fillColor=none;align=center;verticalAlign=middle;whiteSpace=wrap;rounded=0;" parent="1" vertex="1">
          <mxGeometry x="999.25" y="119.5" width="145" height="30" as="geometry" />
        </mxCell>
        <mxCell id="tsIFHmdTFSINdlWLhxCd-37" value="&lt;span style=&quot;font-size: 25px;&quot;&gt;Extend&lt;br&gt;&lt;/span&gt;" style="endArrow=open;endSize=12;dashed=1;html=1;rounded=0;exitX=0;exitY=0.5;exitDx=0;exitDy=0;entryX=1;entryY=0.5;entryDx=0;entryDy=0;" parent="1" source="tsIFHmdTFSINdlWLhxCd-38" edge="1">
          <mxGeometry width="160" relative="1" as="geometry">
            <mxPoint x="744" y="-161.5" as="sourcePoint" />
            <mxPoint x="740" y="-296" as="targetPoint" />
          </mxGeometry>
        </mxCell>
        <mxCell id="tsIFHmdTFSINdlWLhxCd-38" value="" style="ellipse;whiteSpace=wrap;html=1;" parent="1" vertex="1">
          <mxGeometry x="892" y="-350" width="324" height="107" as="geometry" />
        </mxCell>
        <mxCell id="tsIFHmdTFSINdlWLhxCd-39" value="&lt;font style=&quot;font-size: 25px;&quot;&gt;Настройка продолжительности таймера&lt;/font&gt;" style="text;html=1;strokeColor=none;fillColor=none;align=center;verticalAlign=middle;whiteSpace=wrap;rounded=0;" parent="1" vertex="1">
          <mxGeometry x="981.5" y="-311.5" width="145" height="30" as="geometry" />
        </mxCell>
        <mxCell id="tsIFHmdTFSINdlWLhxCd-40" value="&lt;span style=&quot;font-size: 25px;&quot;&gt;Extend&lt;br&gt;&lt;/span&gt;" style="endArrow=open;endSize=12;dashed=1;html=1;rounded=0;exitX=0;exitY=0.5;exitDx=0;exitDy=0;entryX=1;entryY=0.5;entryDx=0;entryDy=0;" parent="1" source="tsIFHmdTFSINdlWLhxCd-41" target="tsIFHmdTFSINdlWLhxCd-14" edge="1">
          <mxGeometry width="160" relative="1" as="geometry">
            <mxPoint x="332.25" y="305.5" as="sourcePoint" />
            <mxPoint x="-5.75" y="370.5" as="targetPoint" />
          </mxGeometry>
        </mxCell>
        <mxCell id="tsIFHmdTFSINdlWLhxCd-41" value="" style="ellipse;whiteSpace=wrap;html=1;" parent="1" vertex="1">
          <mxGeometry x="425.75" y="81" width="324" height="107" as="geometry" />
        </mxCell>
        <mxCell id="tsIFHmdTFSINdlWLhxCd-42" value="&lt;font style=&quot;font-size: 25px;&quot;&gt;Настройка времени срабатывания&amp;nbsp;&lt;/font&gt;" style="text;html=1;strokeColor=none;fillColor=none;align=center;verticalAlign=middle;whiteSpace=wrap;rounded=0;" parent="1" vertex="1">
          <mxGeometry x="515.25" y="119.5" width="145" height="30" as="geometry" />
        </mxCell>
        <mxCell id="tsIFHmdTFSINdlWLhxCd-43" value="&lt;span style=&quot;font-size: 25px;&quot;&gt;Extend&lt;br&gt;&lt;/span&gt;" style="endArrow=open;endSize=12;dashed=1;html=1;rounded=0;exitX=0;exitY=0.5;exitDx=0;exitDy=0;entryX=0.5;entryY=1;entryDx=0;entryDy=0;" parent="1" source="tsIFHmdTFSINdlWLhxCd-44" target="tsIFHmdTFSINdlWLhxCd-14" edge="1">
          <mxGeometry width="160" relative="1" as="geometry">
            <mxPoint x="262.5" y="430.5" as="sourcePoint" />
            <mxPoint x="578.5" y="146" as="targetPoint" />
          </mxGeometry>
        </mxCell>
        <mxCell id="tsIFHmdTFSINdlWLhxCd-44" value="" style="ellipse;whiteSpace=wrap;html=1;" parent="1" vertex="1">
          <mxGeometry x="686" y="239" width="324" height="107" as="geometry" />
        </mxCell>
        <mxCell id="tsIFHmdTFSINdlWLhxCd-45" value="&lt;font style=&quot;font-size: 25px;&quot;&gt;Настройка вызываемого сообщения\заданя&lt;/font&gt;" style="text;html=1;strokeColor=none;fillColor=none;align=center;verticalAlign=middle;whiteSpace=wrap;rounded=0;" parent="1" vertex="1">
          <mxGeometry x="776" y="271" width="145" height="30" as="geometry" />
        </mxCell>
        <mxCell id="tsIFHmdTFSINdlWLhxCd-47" value="&lt;span style=&quot;font-size: 25px;&quot;&gt;Extend&lt;br&gt;&lt;/span&gt;" style="endArrow=open;endSize=12;dashed=1;html=1;rounded=0;exitX=0.5;exitY=0;exitDx=0;exitDy=0;entryX=0.5;entryY=1;entryDx=0;entryDy=0;" parent="1" source="tsIFHmdTFSINdlWLhxCd-48" target="tsIFHmdTFSINdlWLhxCd-17" edge="1">
          <mxGeometry width="160" relative="1" as="geometry">
            <mxPoint x="738.5" y="432.5" as="sourcePoint" />
            <mxPoint x="720" y="97" as="targetPoint" />
          </mxGeometry>
        </mxCell>
        <mxCell id="tsIFHmdTFSINdlWLhxCd-48" value="" style="ellipse;whiteSpace=wrap;html=1;" parent="1" vertex="1">
          <mxGeometry x="892" y="-146" width="324" height="107" as="geometry" />
        </mxCell>
        <mxCell id="tsIFHmdTFSINdlWLhxCd-49" value="&lt;font style=&quot;font-size: 25px;&quot;&gt;Настройка вызываемого сообщения(опц)&lt;/font&gt;" style="text;html=1;strokeColor=none;fillColor=none;align=center;verticalAlign=middle;whiteSpace=wrap;rounded=0;" parent="1" vertex="1">
          <mxGeometry x="982" y="-114" width="145" height="30" as="geometry" />
        </mxCell>
        <mxCell id="tsIFHmdTFSINdlWLhxCd-50" value="&lt;span style=&quot;font-size: 25px;&quot;&gt;Include&lt;/span&gt;" style="endArrow=open;endSize=12;dashed=1;html=1;rounded=0;exitX=0.5;exitY=0;exitDx=0;exitDy=0;entryX=0.5;entryY=1;entryDx=0;entryDy=0;" parent="1" source="tsIFHmdTFSINdlWLhxCd-2" target="tsIFHmdTFSINdlWLhxCd-51" edge="1">
          <mxGeometry width="160" relative="1" as="geometry">
            <mxPoint x="287.5" y="-214" as="sourcePoint" />
            <mxPoint x="287" y="-134" as="targetPoint" />
          </mxGeometry>
        </mxCell>
        <mxCell id="tsIFHmdTFSINdlWLhxCd-51" value="" style="ellipse;whiteSpace=wrap;html=1;" parent="1" vertex="1">
          <mxGeometry x="-80.5" y="-363" width="324" height="107" as="geometry" />
        </mxCell>
        <mxCell id="tsIFHmdTFSINdlWLhxCd-52" value="&lt;span style=&quot;font-size: 25px;&quot;&gt;Общие настройки\о приложении&lt;/span&gt;" style="text;html=1;strokeColor=none;fillColor=none;align=center;verticalAlign=middle;whiteSpace=wrap;rounded=0;" parent="1" vertex="1">
          <mxGeometry x="18" y="-324.5" width="137" height="30" as="geometry" />
        </mxCell>
        <mxCell id="tsIFHmdTFSINdlWLhxCd-53" value="&lt;span style=&quot;font-size: 25px;&quot;&gt;Include&lt;br&gt;&lt;/span&gt;" style="endArrow=open;endSize=12;dashed=1;html=1;rounded=0;exitX=0.5;exitY=1;exitDx=0;exitDy=0;entryX=0.5;entryY=0;entryDx=0;entryDy=0;" parent="1" source="tsIFHmdTFSINdlWLhxCd-26" target="tsIFHmdTFSINdlWLhxCd-44" edge="1">
          <mxGeometry width="160" relative="1" as="geometry">
            <mxPoint x="727" y="-273" as="sourcePoint" />
            <mxPoint x="736" y="-439.5" as="targetPoint" />
            <Array as="points">
              <mxPoint x="846" y="106" />
            </Array>
          </mxGeometry>
        </mxCell>
        <mxCell id="tsIFHmdTFSINdlWLhxCd-57" value="&lt;span style=&quot;font-size: 25px;&quot;&gt;Include&lt;br&gt;&lt;/span&gt;" style="endArrow=open;endSize=12;dashed=1;html=1;rounded=0;exitX=0.5;exitY=1;exitDx=0;exitDy=0;entryX=0.5;entryY=0;entryDx=0;entryDy=0;" parent="1" source="tsIFHmdTFSINdlWLhxCd-26" target="tsIFHmdTFSINdlWLhxCd-41" edge="1">
          <mxGeometry width="160" relative="1" as="geometry">
            <mxPoint x="766" y="-265" as="sourcePoint" />
            <mxPoint x="759" y="130" as="targetPoint" />
          </mxGeometry>
        </mxCell>
      </root>
    </mxGraphModel>
  </diagram>
</mxfile>
